<svg xmlns="http://www.w3.org/2000/svg" width="1111" height="155" viewBox="0 0 1111 155" role="img" aria-label="TOMNAP">
<desc>Contour-traced SVG approximation created from the supplied TOMNAP raster logo board.</desc>
<defs>
  <linearGradient id="tomnapGradient" x1="0" y1="0" x2="1111" y2="155" gradientUnits="userSpaceOnUse">
    <stop offset="0" stop-color="#14E0CB"/>
    <stop offset="0.48" stop-color="#00D4FF"/>
    <stop offset="1" stop-color="#0055FF"/>
  </linearGradient>
</defs>
<path d="M 837.0 104.0 L 834.0 105.0 L 829.0 110.0 L 828.0 112.0 L 828.0 120.0 L 829.0 123.0 L 833.0 127.0 L 842.0 129.0 L 847.0 127.0 L 852.0 122.0 L 853.0 114.0 L 850.0 108.0 L 844.0 104.0 Z M 236.0 68.0 L 232.0 70.0 L 226.0 78.0 L 226.0 88.0 L 228.0 92.0 L 235.0 98.0 L 238.0 99.0 L 248.0 98.0 L 253.0 95.0 L 257.0 89.0 L 258.0 85.0 L 257.0 78.0 L 255.0 74.0 L 251.0 70.0 L 243.0 67.0 Z M 967.0 23.0 L 967.0 142.0 L 988.0 142.0 L 988.0 104.0 L 989.0 103.0 L 1039.0 103.0 L 1040.0 102.0 L 1053.0 101.0 L 1066.0 95.0 L 1077.0 84.0 L 1082.0 70.0 L 1081.0 50.0 L 1075.0 38.0 L 1069.0 32.0 L 1063.0 28.0 L 1056.0 25.0 L 1048.0 23.0 L 1040.0 23.0 L 1039.0 22.0 L 968.0 22.0 Z M 988.0 43.0 L 989.0 42.0 L 1043.0 42.0 L 1047.0 43.0 L 1054.0 47.0 L 1057.0 50.0 L 1060.0 56.0 L 1060.0 68.0 L 1059.0 71.0 L 1054.0 78.0 L 1043.0 83.0 L 989.0 83.0 L 988.0 82.0 Z M 763.0 142.0 L 787.0 142.0 L 798.0 121.0 L 803.0 114.0 L 806.0 107.0 L 811.0 100.0 L 814.0 93.0 L 840.0 49.0 L 843.0 52.0 L 857.0 78.0 L 869.0 97.0 L 894.0 142.0 L 918.0 142.0 L 849.0 22.0 L 832.0 22.0 L 772.0 127.0 Z M 590.0 23.0 L 590.0 142.0 L 611.0 142.0 L 611.0 57.0 L 612.0 56.0 L 693.0 142.0 L 712.0 142.0 L 712.0 22.0 L 691.0 22.0 L 691.0 107.0 L 690.0 108.0 L 609.0 22.0 L 591.0 22.0 Z M 373.0 22.0 L 373.0 142.0 L 393.0 142.0 L 393.0 59.0 L 394.0 58.0 L 444.0 119.0 L 449.0 119.0 L 453.0 115.0 L 469.0 94.0 L 500.0 58.0 L 501.0 59.0 L 501.0 142.0 L 521.0 142.0 L 521.0 22.0 L 503.0 22.0 L 447.0 90.0 L 445.0 89.0 L 392.0 22.0 Z M 19.0 22.0 L 19.0 42.0 L 65.0 42.0 L 66.0 43.0 L 66.0 142.0 L 87.0 142.0 L 87.0 43.0 L 88.0 42.0 L 133.0 42.0 L 133.0 22.0 Z M 228.0 11.0 L 214.0 15.0 L 198.0 24.0 L 188.0 33.0 L 179.0 45.0 L 173.0 57.0 L 169.0 71.0 L 168.0 87.0 L 169.0 88.0 L 170.0 100.0 L 175.0 114.0 L 183.0 127.0 L 193.0 138.0 L 204.0 146.0 L 224.0 154.0 L 259.0 154.0 L 271.0 150.0 L 285.0 142.0 L 299.0 129.0 L 306.0 119.0 L 312.0 106.0 L 315.0 94.0 L 315.0 72.0 L 314.0 71.0 L 314.0 66.0 L 307.0 48.0 L 298.0 35.0 L 286.0 24.0 L 284.0 23.0 L 278.0 24.0 L 272.0 33.0 L 272.0 37.0 L 284.0 48.0 L 289.0 55.0 L 293.0 63.0 L 296.0 74.0 L 296.0 92.0 L 294.0 100.0 L 288.0 112.0 L 275.0 126.0 L 263.0 133.0 L 253.0 136.0 L 248.0 136.0 L 247.0 137.0 L 231.0 136.0 L 221.0 133.0 L 213.0 129.0 L 206.0 124.0 L 197.0 114.0 L 189.0 98.0 L 188.0 90.0 L 187.0 89.0 L 187.0 77.0 L 191.0 62.0 L 198.0 50.0 L 209.0 39.0 L 222.0 32.0 L 234.0 29.0 L 258.0 30.0 L 263.0 24.0 L 263.0 16.0 L 258.0 12.0 L 249.0 11.0 L 248.0 10.0 Z" fill="#000000" fill-rule="evenodd"/>
</svg>