<svg xmlns="http://www.w3.org/2000/svg" width="1111" height="227" viewBox="0 0 1111 227" role="img" aria-label="TOMNAP">
<desc>Contour-traced SVG approximation created from the supplied TOMNAP raster logo board.</desc>
<defs>
  <linearGradient id="tomnapGradient" x1="0" y1="0" x2="1111" y2="227" gradientUnits="userSpaceOnUse">
    <stop offset="0" stop-color="#14E0CB"/>
    <stop offset="0.48" stop-color="#00D4FF"/>
    <stop offset="1" stop-color="#0055FF"/>
  </linearGradient>
</defs>
<path d="M 840.0 206.0 L 839.0 210.0 L 842.0 211.0 L 844.0 209.0 L 844.0 207.0 Z M 624.0 206.0 L 623.0 210.0 L 626.0 211.0 L 627.0 207.0 Z M 432.0 206.0 L 431.0 209.0 L 433.0 211.0 L 436.0 210.0 L 436.0 207.0 Z M 812.0 186.0 L 811.0 187.0 L 812.0 190.0 L 819.0 190.0 L 820.0 191.0 L 820.0 211.0 L 823.0 211.0 L 824.0 210.0 L 823.0 191.0 L 825.0 189.0 L 826.0 190.0 L 831.0 190.0 L 832.0 187.0 L 831.0 186.0 Z M 796.0 186.0 L 795.0 187.0 L 795.0 210.0 L 799.0 210.0 L 799.0 187.0 Z M 742.0 186.0 L 742.0 211.0 L 745.0 211.0 L 745.0 195.0 L 746.0 194.0 L 751.0 199.0 L 760.0 211.0 L 763.0 211.0 L 763.0 186.0 L 759.0 187.0 L 760.0 197.0 L 758.0 202.0 L 746.0 187.0 Z M 692.0 187.0 L 701.0 211.0 L 705.0 210.0 L 709.0 196.0 L 711.0 193.0 L 714.0 199.0 L 717.0 210.0 L 721.0 211.0 L 730.0 187.0 L 726.0 186.0 L 721.0 202.0 L 719.0 203.0 L 713.0 186.0 L 709.0 186.0 L 704.0 202.0 L 702.0 204.0 L 697.0 188.0 L 695.0 186.0 Z M 666.0 186.0 L 661.0 188.0 L 657.0 192.0 L 656.0 202.0 L 658.0 206.0 L 663.0 210.0 L 672.0 211.0 L 677.0 209.0 L 682.0 203.0 L 682.0 194.0 L 677.0 188.0 L 673.0 186.0 Z M 665.0 190.0 L 671.0 189.0 L 675.0 191.0 L 678.0 195.0 L 678.0 202.0 L 673.0 207.0 L 666.0 207.0 L 660.0 201.0 L 660.0 195.0 Z M 595.0 186.0 L 594.0 189.0 L 602.0 190.0 L 603.0 191.0 L 603.0 211.0 L 606.0 211.0 L 607.0 210.0 L 607.0 206.0 L 606.0 205.0 L 607.0 190.0 L 608.0 189.0 L 609.0 190.0 L 610.0 189.0 L 613.0 190.0 L 615.0 189.0 L 615.0 187.0 L 614.0 186.0 Z M 579.0 186.0 L 578.0 187.0 L 578.0 210.0 L 582.0 210.0 L 582.0 186.0 Z M 544.0 187.0 L 541.0 186.0 L 529.0 186.0 L 528.0 187.0 L 528.0 210.0 L 532.0 210.0 L 532.0 204.0 L 533.0 203.0 L 542.0 203.0 L 546.0 201.0 L 548.0 198.0 L 548.0 191.0 Z M 532.0 190.0 L 533.0 189.0 L 542.0 190.0 L 544.0 192.0 L 544.0 197.0 L 542.0 199.0 L 533.0 200.0 L 532.0 199.0 Z M 502.0 186.0 L 490.0 210.0 L 494.0 210.0 L 497.0 205.0 L 509.0 205.0 L 512.0 210.0 L 516.0 210.0 L 506.0 188.0 L 504.0 186.0 Z M 503.0 191.0 L 508.0 200.0 L 507.0 202.0 L 499.0 202.0 L 498.0 201.0 Z M 463.0 186.0 L 463.0 190.0 L 465.0 189.0 L 467.0 190.0 L 470.0 189.0 L 471.0 190.0 L 471.0 210.0 L 474.0 211.0 L 475.0 210.0 L 475.0 190.0 L 476.0 189.0 L 483.0 189.0 L 483.0 187.0 L 482.0 186.0 Z M 404.0 186.0 L 403.0 190.0 L 411.0 190.0 L 412.0 191.0 L 411.0 205.0 L 412.0 206.0 L 412.0 211.0 L 415.0 211.0 L 415.0 191.0 L 416.0 190.0 L 423.0 190.0 L 424.0 186.0 Z M 388.0 186.0 L 387.0 187.0 L 387.0 210.0 L 390.0 211.0 L 391.0 210.0 L 391.0 186.0 Z M 340.0 186.0 L 339.0 187.0 L 339.0 210.0 L 340.0 211.0 L 356.0 211.0 L 357.0 207.0 L 344.0 207.0 L 343.0 206.0 L 343.0 201.0 L 344.0 200.0 L 355.0 200.0 L 355.0 197.0 L 344.0 197.0 L 343.0 196.0 L 343.0 190.0 L 344.0 189.0 L 345.0 190.0 L 356.0 190.0 L 357.0 187.0 L 356.0 186.0 Z M 308.0 186.0 L 307.0 187.0 L 307.0 210.0 L 308.0 211.0 L 325.0 211.0 L 326.0 209.0 L 325.0 207.0 L 312.0 207.0 L 311.0 206.0 L 311.0 201.0 L 312.0 200.0 L 323.0 200.0 L 324.0 199.0 L 324.0 197.0 L 312.0 197.0 L 311.0 196.0 L 311.0 191.0 L 312.0 190.0 L 325.0 190.0 L 325.0 186.0 Z M 282.0 186.0 L 279.0 187.0 L 276.0 190.0 L 276.0 196.0 L 280.0 199.0 L 288.0 201.0 L 290.0 203.0 L 290.0 205.0 L 288.0 207.0 L 281.0 207.0 L 276.0 205.0 L 275.0 208.0 L 282.0 211.0 L 288.0 211.0 L 291.0 210.0 L 294.0 207.0 L 294.0 201.0 L 291.0 198.0 L 282.0 196.0 L 280.0 194.0 L 280.0 191.0 L 283.0 189.0 L 287.0 189.0 L 292.0 191.0 L 293.0 188.0 L 288.0 186.0 Z M 837.0 104.0 L 834.0 105.0 L 829.0 110.0 L 828.0 112.0 L 828.0 120.0 L 829.0 123.0 L 833.0 127.0 L 842.0 129.0 L 847.0 127.0 L 852.0 122.0 L 853.0 114.0 L 850.0 108.0 L 844.0 104.0 Z M 236.0 68.0 L 232.0 70.0 L 226.0 78.0 L 226.0 88.0 L 228.0 92.0 L 235.0 98.0 L 238.0 99.0 L 248.0 98.0 L 253.0 95.0 L 257.0 89.0 L 258.0 85.0 L 257.0 78.0 L 255.0 74.0 L 251.0 70.0 L 243.0 67.0 Z M 967.0 23.0 L 967.0 142.0 L 988.0 142.0 L 988.0 104.0 L 989.0 103.0 L 1039.0 103.0 L 1040.0 102.0 L 1053.0 101.0 L 1066.0 95.0 L 1077.0 84.0 L 1082.0 70.0 L 1081.0 50.0 L 1075.0 38.0 L 1069.0 32.0 L 1063.0 28.0 L 1056.0 25.0 L 1048.0 23.0 L 1040.0 23.0 L 1039.0 22.0 L 968.0 22.0 Z M 988.0 43.0 L 989.0 42.0 L 1043.0 42.0 L 1047.0 43.0 L 1054.0 47.0 L 1057.0 50.0 L 1060.0 56.0 L 1060.0 68.0 L 1059.0 71.0 L 1054.0 78.0 L 1043.0 83.0 L 989.0 83.0 L 988.0 82.0 Z M 763.0 142.0 L 787.0 142.0 L 798.0 121.0 L 803.0 114.0 L 806.0 107.0 L 811.0 100.0 L 814.0 93.0 L 840.0 49.0 L 843.0 52.0 L 857.0 78.0 L 869.0 97.0 L 894.0 142.0 L 918.0 142.0 L 849.0 22.0 L 832.0 22.0 L 772.0 127.0 Z M 590.0 23.0 L 590.0 142.0 L 611.0 142.0 L 611.0 57.0 L 612.0 56.0 L 693.0 142.0 L 712.0 142.0 L 712.0 22.0 L 691.0 22.0 L 691.0 107.0 L 690.0 108.0 L 609.0 22.0 L 591.0 22.0 Z M 373.0 22.0 L 373.0 142.0 L 393.0 142.0 L 393.0 59.0 L 394.0 58.0 L 444.0 119.0 L 449.0 119.0 L 453.0 115.0 L 469.0 94.0 L 500.0 58.0 L 501.0 59.0 L 501.0 142.0 L 521.0 142.0 L 521.0 22.0 L 503.0 22.0 L 447.0 90.0 L 445.0 89.0 L 392.0 22.0 Z M 19.0 22.0 L 19.0 42.0 L 65.0 42.0 L 66.0 43.0 L 66.0 142.0 L 87.0 142.0 L 87.0 43.0 L 88.0 42.0 L 133.0 42.0 L 133.0 22.0 Z M 235.0 10.0 L 214.0 15.0 L 198.0 24.0 L 188.0 33.0 L 179.0 45.0 L 173.0 57.0 L 169.0 71.0 L 168.0 87.0 L 169.0 88.0 L 170.0 100.0 L 175.0 114.0 L 183.0 127.0 L 193.0 138.0 L 204.0 146.0 L 217.0 152.0 L 228.0 155.0 L 234.0 155.0 L 235.0 156.0 L 247.0 156.0 L 248.0 155.0 L 255.0 155.0 L 263.0 153.0 L 279.0 146.0 L 289.0 139.0 L 299.0 129.0 L 306.0 119.0 L 313.0 103.0 L 314.0 95.0 L 315.0 94.0 L 315.0 72.0 L 311.0 57.0 L 304.0 43.0 L 291.0 28.0 L 284.0 23.0 L 280.0 23.0 L 277.0 25.0 L 272.0 33.0 L 272.0 37.0 L 284.0 48.0 L 289.0 55.0 L 293.0 63.0 L 296.0 74.0 L 296.0 92.0 L 292.0 105.0 L 286.0 115.0 L 275.0 126.0 L 269.0 130.0 L 257.0 135.0 L 248.0 136.0 L 247.0 137.0 L 237.0 137.0 L 236.0 136.0 L 227.0 135.0 L 213.0 129.0 L 206.0 124.0 L 195.0 111.0 L 190.0 101.0 L 187.0 89.0 L 188.0 72.0 L 194.0 56.0 L 198.0 50.0 L 209.0 39.0 L 222.0 32.0 L 234.0 29.0 L 258.0 30.0 L 263.0 24.0 L 263.0 16.0 L 260.0 13.0 L 248.0 10.0 Z" fill="#000000" fill-rule="evenodd"/>
</svg>