<svg xmlns="http://www.w3.org/2000/svg" width="1111" height="155" viewBox="0 0 1111 155" role="img" aria-label="TOMNAP">
<desc>Contour-traced SVG approximation created from the supplied TOMNAP raster logo board.</desc>
<defs>
  <linearGradient id="tomnapGradient" x1="0" y1="0" x2="1111" y2="155" gradientUnits="userSpaceOnUse">
    <stop offset="0" stop-color="#14E0CB"/>
    <stop offset="0.48" stop-color="#00D4FF"/>
    <stop offset="1" stop-color="#0055FF"/>
  </linearGradient>
</defs>
<path d="M 967.0 23.0 L 967.0 142.0 L 988.0 142.0 L 988.0 104.0 L 989.0 103.0 L 1039.0 103.0 L 1044.0 101.0 L 1048.0 102.0 L 1050.0 100.0 L 1053.0 101.0 L 1054.0 99.0 L 1056.0 100.0 L 1060.0 97.0 L 1061.0 98.0 L 1062.0 96.0 L 1063.0 97.0 L 1066.0 95.0 L 1077.0 84.0 L 1076.0 83.0 L 1079.0 80.0 L 1078.0 79.0 L 1080.0 77.0 L 1081.0 74.0 L 1080.0 73.0 L 1082.0 70.0 L 1081.0 66.0 L 1082.0 55.0 L 1080.0 52.0 L 1081.0 50.0 L 1080.0 47.0 L 1078.0 46.0 L 1079.0 45.0 L 1076.0 42.0 L 1077.0 41.0 L 1069.0 32.0 L 1067.0 32.0 L 1063.0 28.0 L 1062.0 29.0 L 1061.0 27.0 L 1056.0 25.0 L 1054.0 26.0 L 1052.0 24.0 L 1050.0 25.0 L 1048.0 23.0 L 1044.0 24.0 L 1039.0 22.0 L 968.0 22.0 Z M 1060.0 54.0 L 1059.0 55.0 L 1060.0 56.0 L 1060.0 66.0 L 1061.0 67.0 L 1059.0 69.0 L 1059.0 71.0 L 1056.0 76.0 L 1046.0 83.0 L 1044.0 82.0 L 1041.0 84.0 L 1040.0 83.0 L 989.0 83.0 L 988.0 82.0 L 988.0 43.0 L 989.0 42.0 L 1039.0 42.0 L 1041.0 41.0 L 1044.0 43.0 L 1047.0 43.0 L 1053.0 47.0 L 1055.0 47.0 L 1057.0 51.0 L 1059.0 52.0 L 1058.0 53.0 Z M 763.0 142.0 L 787.0 142.0 L 789.0 136.0 L 791.0 135.0 L 790.0 134.0 L 792.0 133.0 L 795.0 128.0 L 794.0 127.0 L 796.0 126.0 L 800.0 119.0 L 799.0 118.0 L 803.0 114.0 L 802.0 113.0 L 804.0 112.0 L 806.0 106.0 L 808.0 105.0 L 811.0 100.0 L 810.0 99.0 L 812.0 98.0 L 814.0 92.0 L 816.0 91.0 L 818.0 85.0 L 820.0 84.0 L 822.0 79.0 L 827.0 72.0 L 826.0 71.0 L 828.0 70.0 L 831.0 65.0 L 830.0 64.0 L 832.0 63.0 L 835.0 58.0 L 834.0 57.0 L 836.0 56.0 L 837.0 52.0 L 840.0 49.0 L 843.0 51.0 L 843.0 53.0 L 845.0 57.0 L 847.0 58.0 L 849.0 64.0 L 851.0 65.0 L 852.0 69.0 L 854.0 70.0 L 853.0 71.0 L 856.0 76.0 L 858.0 77.0 L 857.0 78.0 L 860.0 83.0 L 862.0 84.0 L 862.0 86.0 L 864.0 90.0 L 866.0 91.0 L 867.0 95.0 L 869.0 96.0 L 872.0 104.0 L 874.0 105.0 L 875.0 109.0 L 877.0 110.0 L 876.0 111.0 L 878.0 112.0 L 879.0 116.0 L 881.0 117.0 L 880.0 118.0 L 882.0 120.0 L 885.0 127.0 L 887.0 128.0 L 889.0 134.0 L 891.0 135.0 L 890.0 136.0 L 892.0 137.0 L 893.0 141.0 L 894.0 142.0 L 918.0 142.0 L 915.0 139.0 L 916.0 138.0 L 913.0 133.0 L 911.0 132.0 L 912.0 131.0 L 909.0 126.0 L 907.0 125.0 L 908.0 124.0 L 906.0 123.0 L 907.0 122.0 L 904.0 117.0 L 902.0 116.0 L 903.0 115.0 L 900.0 110.0 L 898.0 109.0 L 899.0 108.0 L 896.0 103.0 L 894.0 102.0 L 895.0 101.0 L 891.0 94.0 L 889.0 93.0 L 888.0 89.0 L 886.0 88.0 L 887.0 87.0 L 883.0 80.0 L 881.0 79.0 L 882.0 78.0 L 878.0 74.0 L 879.0 73.0 L 875.0 66.0 L 873.0 65.0 L 872.0 61.0 L 870.0 60.0 L 871.0 59.0 L 868.0 54.0 L 866.0 53.0 L 867.0 52.0 L 864.0 47.0 L 862.0 46.0 L 860.0 40.0 L 858.0 39.0 L 859.0 38.0 L 855.0 34.0 L 856.0 33.0 L 852.0 29.0 L 853.0 28.0 L 851.0 27.0 L 852.0 26.0 L 849.0 22.0 L 832.0 22.0 L 828.0 28.0 L 829.0 29.0 L 827.0 30.0 L 824.0 35.0 L 825.0 36.0 L 823.0 37.0 L 820.0 42.0 L 821.0 43.0 L 819.0 44.0 L 817.0 47.0 L 818.0 48.0 L 816.0 49.0 L 813.0 54.0 L 814.0 55.0 L 812.0 56.0 L 813.0 57.0 L 809.0 61.0 L 810.0 62.0 L 808.0 63.0 L 805.0 68.0 L 806.0 69.0 L 802.0 73.0 L 803.0 74.0 L 801.0 75.0 L 799.0 81.0 L 797.0 82.0 L 798.0 83.0 L 794.0 87.0 L 795.0 88.0 L 793.0 89.0 L 791.0 95.0 L 789.0 96.0 L 786.0 101.0 L 787.0 102.0 L 785.0 103.0 L 782.0 108.0 L 783.0 109.0 L 781.0 110.0 L 774.0 122.0 L 775.0 123.0 L 773.0 124.0 L 767.0 134.0 L 768.0 135.0 L 766.0 136.0 Z M 590.0 23.0 L 590.0 142.0 L 611.0 142.0 L 611.0 57.0 L 612.0 56.0 L 636.0 80.0 L 640.0 86.0 L 655.0 100.0 L 660.0 107.0 L 672.0 118.0 L 674.0 122.0 L 683.0 130.0 L 686.0 135.0 L 693.0 142.0 L 712.0 142.0 L 711.0 141.0 L 711.0 102.0 L 712.0 101.0 L 712.0 87.0 L 711.0 86.0 L 711.0 80.0 L 712.0 79.0 L 712.0 70.0 L 711.0 69.0 L 711.0 48.0 L 712.0 47.0 L 711.0 31.0 L 712.0 30.0 L 712.0 26.0 L 711.0 24.0 L 712.0 22.0 L 691.0 22.0 L 691.0 73.0 L 692.0 74.0 L 692.0 92.0 L 691.0 93.0 L 692.0 108.0 L 691.0 109.0 L 667.0 85.0 L 665.0 81.0 L 649.0 66.0 L 647.0 62.0 L 633.0 49.0 L 629.0 43.0 L 617.0 32.0 L 609.0 22.0 L 591.0 22.0 Z M 373.0 22.0 L 373.0 142.0 L 377.0 141.0 L 378.0 142.0 L 393.0 142.0 L 393.0 59.0 L 394.0 58.0 L 402.0 66.0 L 407.0 74.0 L 412.0 78.0 L 412.0 80.0 L 416.0 83.0 L 416.0 85.0 L 425.0 94.0 L 425.0 96.0 L 434.0 105.0 L 434.0 107.0 L 437.0 109.0 L 438.0 112.0 L 442.0 115.0 L 442.0 117.0 L 444.0 119.0 L 449.0 119.0 L 453.0 115.0 L 453.0 113.0 L 457.0 110.0 L 457.0 108.0 L 461.0 105.0 L 461.0 103.0 L 465.0 100.0 L 470.0 92.0 L 475.0 88.0 L 475.0 86.0 L 479.0 83.0 L 480.0 80.0 L 484.0 77.0 L 485.0 74.0 L 494.0 65.0 L 494.0 63.0 L 500.0 58.0 L 501.0 59.0 L 501.0 142.0 L 521.0 142.0 L 521.0 22.0 L 503.0 22.0 L 485.0 43.0 L 484.0 46.0 L 480.0 49.0 L 480.0 51.0 L 475.0 55.0 L 475.0 57.0 L 471.0 60.0 L 471.0 62.0 L 467.0 65.0 L 467.0 67.0 L 463.0 70.0 L 458.0 78.0 L 454.0 81.0 L 454.0 83.0 L 446.0 91.0 L 445.0 88.0 L 442.0 86.0 L 441.0 83.0 L 433.0 73.0 L 429.0 70.0 L 429.0 68.0 L 426.0 66.0 L 426.0 64.0 L 418.0 56.0 L 417.0 53.0 L 413.0 50.0 L 413.0 48.0 L 409.0 45.0 L 409.0 43.0 L 400.0 32.0 L 396.0 29.0 L 396.0 27.0 L 392.0 22.0 Z M 19.0 22.0 L 20.0 24.0 L 19.0 27.0 L 19.0 38.0 L 20.0 40.0 L 19.0 42.0 L 65.0 42.0 L 66.0 43.0 L 66.0 142.0 L 87.0 142.0 L 87.0 43.0 L 88.0 42.0 L 133.0 42.0 L 133.0 22.0 Z M 86.0 42.0 L 87.0 41.0 L 88.0 42.0 L 87.0 43.0 Z" fill="#0B1320" fill-rule="evenodd"/><path d="M 835.0 105.0 L 830.0 109.0 L 828.0 113.0 L 829.0 122.0 L 831.0 125.0 L 836.0 128.0 L 844.0 128.0 L 851.0 123.0 L 852.0 121.0 L 852.0 112.0 L 845.0 105.0 L 842.0 104.0 Z M 237.0 68.0 L 233.0 70.0 L 228.0 75.0 L 226.0 80.0 L 226.0 86.0 L 229.0 93.0 L 232.0 96.0 L 240.0 99.0 L 247.0 98.0 L 251.0 96.0 L 255.0 92.0 L 257.0 88.0 L 257.0 79.0 L 254.0 73.0 L 246.0 68.0 Z M 225.0 12.0 L 215.0 15.0 L 200.0 23.0 L 185.0 37.0 L 180.0 44.0 L 174.0 55.0 L 169.0 73.0 L 169.0 93.0 L 170.0 94.0 L 170.0 98.0 L 174.0 111.0 L 180.0 122.0 L 185.0 129.0 L 200.0 143.0 L 213.0 150.0 L 225.0 154.0 L 258.0 154.0 L 270.0 150.0 L 283.0 143.0 L 296.0 132.0 L 305.0 120.0 L 310.0 110.0 L 314.0 97.0 L 314.0 92.0 L 315.0 91.0 L 314.0 68.0 L 309.0 53.0 L 299.0 37.0 L 285.0 24.0 L 283.0 23.0 L 279.0 24.0 L 273.0 32.0 L 272.0 37.0 L 286.0 50.0 L 290.0 56.0 L 295.0 68.0 L 296.0 77.0 L 297.0 78.0 L 296.0 94.0 L 291.0 108.0 L 284.0 118.0 L 273.0 128.0 L 264.0 133.0 L 255.0 136.0 L 251.0 136.0 L 250.0 137.0 L 234.0 137.0 L 222.0 134.0 L 212.0 129.0 L 198.0 116.0 L 194.0 110.0 L 187.0 92.0 L 187.0 75.0 L 191.0 61.0 L 200.0 47.0 L 213.0 36.0 L 227.0 30.0 L 238.0 29.0 L 239.0 28.0 L 257.0 30.0 L 261.0 27.0 L 263.0 23.0 L 262.0 15.0 L 257.0 12.0 L 245.0 11.0 L 244.0 10.0 Z" fill="url(#tomnapGradient)" fill-rule="evenodd"/>
</svg>