<svg xmlns="http://www.w3.org/2000/svg" width="512" height="512" viewBox="0 0 512 512" role="img" aria-label="TOMNAP symbol">
<defs></defs>
<path d="M 212.001 91.793 L 207.976 92.924 L 203.980 94.155 L 200.016 95.483 L 196.086 96.908 L 192.192 98.429 L 188.336 100.046 L 184.522 101.757 L 180.750 103.561 L 177.025 105.458 L 173.347 107.446 L 169.718 109.523 L 166.143 111.689 L 162.621 113.942 L 159.156 116.282 L 155.749 118.705 L 152.404 121.212 L 149.120 123.800 L 145.902 126.469 L 142.750 129.215 L 139.666 132.038 L 136.653 134.937 L 133.712 137.908 L 130.845 140.951 L 128.054 144.063 L 125.340 147.244 L 122.705 150.489 L 120.151 153.799 L 117.679 157.171 L 115.290 160.602 L 112.987 164.091 L 110.770 167.636 L 108.641 171.234 L 106.601 174.883 L 104.652 178.581 L 102.794 182.327 L 101.028 186.116 L 99.357 189.948 L 97.780 193.820 L 96.298 197.730 L 94.914 201.675 L 93.627 205.652 L 92.438 209.660 L 91.348 213.697 L 90.357 217.758 L 89.467 221.843 L 88.677 225.949 L 87.989 230.072 L 87.402 234.212 L 86.917 238.364 L 86.535 242.528 L 86.255 246.699 L 86.077 250.876 L 86.003 255.056 L 86.031 259.237 L 86.162 263.415 L 86.396 267.590 L 86.732 271.757 L 87.170 275.914 L 87.711 280.060 L 88.354 284.191 L 89.098 288.305 L 89.943 292.400 L 90.888 296.472 L 91.933 300.520 L 93.077 304.541 L 94.320 308.533 L 95.661 312.493 L 97.099 316.419 L 98.633 320.308 L 100.262 324.158 L 101.985 327.967 L 103.801 331.733 L 105.709 335.453 L 107.709 339.124 L 109.798 342.746 L 111.975 346.315 L 114.239 349.829 L 116.590 353.287 L 119.024 356.686 L 121.541 360.024 L 124.140 363.299 L 126.819 366.509 L 129.575 369.652 L 132.408 372.726 L 135.316 375.730 L 138.297 378.662 L 141.349 381.519 L 144.470 384.301 L 147.659 387.004 L 150.913 389.629 L 154.231 392.173 L 157.610 394.634 L 161.049 397.012 L 164.545 399.304 L 168.097 401.510 L 171.702 403.627 L 175.358 405.656 L 179.062 407.593 L 182.813 409.439 L 186.608 411.193 L 190.446 412.852 L 194.323 414.417 L 198.237 415.886 L 202.186 417.258 L 206.168 418.532 L 210.180 419.709 L 214.219 420.786 L 218.284 421.763 L 222.372 422.641 L 226.480 423.417 L 230.606 424.093 L 234.747 424.666 L 238.901 425.138 L 243.065 425.507 L 247.238 425.774 L 251.415 425.938 L 255.595 426.000 L 259.776 425.958 L 263.954 425.814 L 268.128 425.567 L 272.294 425.217 L 276.450 424.766 L 280.594 424.212 L 284.723 423.556 L 288.835 422.799 L 292.926 421.941 L 296.996 420.983 L 301.041 419.925 L 305.058 418.768 L 309.046 417.512 L 313.001 416.159 L 316.923 414.709 L 320.807 413.163 L 324.652 411.521 L 328.456 409.786 L 332.216 407.958 L 335.929 406.038 L 339.595 404.027 L 343.209 401.926 L 346.771 399.738 L 350.279 397.462 L 353.729 395.101 L 357.120 392.656 L 360.450 390.128 L 363.716 387.519 L 366.918 384.830 L 370.053 382.064 L 373.118 379.221 L 376.113 376.303 L 379.035 373.313 L 381.882 370.252 L 384.654 367.122 L 387.348 363.925 L 389.962 360.662 L 392.495 357.337 L 394.946 353.949 L 397.312 350.503 L 399.594 346.999 L 401.788 343.441 L 403.894 339.829 L 405.911 336.167 L 407.837 332.457 L 409.671 328.700 L 411.412 324.899 L 413.060 321.056 L 414.612 317.174 L 416.068 313.255 L 417.428 309.302 L 418.690 305.316 L 419.853 301.301 L 420.918 297.258 L 421.882 293.190 L 422.747 289.099 L 423.510 284.989 L 424.172 280.861 L 424.733 276.718 L 425.191 272.562 L 425.547 268.397 L 425.801 264.224 L 425.952 260.046 L 426.000 255.865 L 425.945 251.685 L 425.788 247.507 L 425.528 243.334 L 425.165 239.169 L 424.700 235.015 L 424.133 230.872 L 423.464 226.745 L 422.694 222.636 L 421.823 218.547 L 420.852 214.481 L 419.781 210.440 L 418.611 206.426 L 417.343 202.442 L 415.977 198.491 L 414.515 194.574 L 412.956 190.695 L 411.303 186.855 L 409.555 183.057 L 407.715 179.303 L 405.783 175.595 L 403.761 171.936 L 401.649 168.328 L 399.449 164.773 L 397.162 161.273 L 394.790 157.830 L 392.334 154.447 L 389.796 151.125 L 387.176 147.867 L 384.477 144.674 L 381.701 141.548 L 378.848 138.492 L 375.922 135.506 L 372.922 132.594 L 369.852 129.756 L 366.714 126.994 L 363.508 124.311 L 360.237 121.707 L 356.903 119.184 L 353.508 116.744 " fill="none" stroke="#000000" stroke-width="58" stroke-linecap="round" stroke-linejoin="round"/>
<circle cx="256" cy="256" r="48" fill="#000000"/>
</svg>